# xmcd
#
# Track frame offsets: 
#        150
#        14853
#        34110
#        41568
#        58569
#        76136
#        94913
#        114885
#        129683
#        150146
#        166161
#        180401
#        195293
#
# Disc length: 2721 seconds
#
# Revision: 0
# Processed by: cddbd v1.5.2PL0 Copyright (c) Steve Scherf et al.
# Submitted via: ExactAudioCopy v0.95a5
#
DISCID=930a9f0d
DTITLE=Sista Monica Parker - Gimme That Old Time Religion
DYEAR=2001
DGENRE=Gospel
TTITLE0=Bye and Bye
TTITLE1=Walk Around Heaven All Day
TTITLE2=Gimme That Old Time Religion
TTITLE3=Didn't It Rain
TTITLE4=Down by the Riverside
TTITLE5=The Stranger
TTITLE6=Walk All Over God's Heaven
TTITLE7=Amazing Grace - Motherless Child
TTITLE8=When The Saints Go Marching In
TTITLE9=He's Got the Whole World In His Hands
TTITLE10=Don't Knock
TTITLE11=I Want Jesus To Walk With Me
TTITLE12=Gimme That Old Time Religion
EXTD=
EXTT0=
EXTT1=
EXTT2=
EXTT3=
EXTT4=
EXTT5=
EXTT6=
EXTT7=
EXTT8=
EXTT9=
EXTT10=
EXTT11=
EXTT12=
PLAYORDER=
